<?xml version="1.0" encoding="UTF-8"?>
<svg id="Layer_1" data-name="Layer 1" xmlns="http://www.w3.org/2000/svg" viewBox="0 0 563.44 580.75">
  <defs>
    <style>
      .cls-1 {
        opacity: .7;
      }

      .cls-2 {
        fill: #a4d5d8;
        isolation: isolate;
      }

      .cls-3 {
        fill: #d85258;
      }

      .cls-4 {
        fill: #a5becc;
      }

      .cls-5 {
        fill: #365d60;
      }

      .cls-6, .cls-7 {
        fill: none;
      }

      .cls-7 {
        stroke: #dae8db;
        stroke-linecap: round;
        stroke-miterlimit: 10;
        stroke-width: 8px;
      }

      .cls-8 {
        fill: #010101;
      }
    </style>
  </defs>
  <g id="Skull" class="cls-1">
    <g id="path959">
      <path id="path966" d="M209.29,.45c-21.9,1.4-41.7,4.7-60.9,10.1-7.6,2.2-22.2,7.2-29.9,10.2-7.7,3-17.8,8.2-25.2,12.7-26.1,15.7-48.9,38.5-64.3,64.5-11.8,19.8-20.8,44.8-25,68.5-2.4,13.7-3.3,22.4-3.4,36.3-.1,6.3-.4,14.6-.4,15-.6,7.4,.2,14.6,3,28.4,1.4,7.1,3.5,20.6,4.1,26,.7,6.6,.7,9.9,.3,26.8-.3,13.3-.1,17.3,.7,22.5,.5,3.3,.8,5.6,1.8,9.4,1.8,6.7,3.4,11.6,8.1,18.3,4.8,6.9,8.8,11.2,16.7,16,1.4,.8,4.7,2.8,7.1,4.3,3.5,2.1,8,4.6,12,6.5,.8,.4,1.5,.8,2.2,1.2-2,11.1-3,23.1-2.6,36.7,.1,4.3,0,7.5,1.5,12.7,1.6,5.2,6.1,10.6,8.3,12.6,4.5,4,10.3,6.6,17,6.6,3.9,2.5,8.1,3.2,12.5,3.2,.1,.1,.3,.3,.4,.4-2.1,.5-4,1.1-5.7,2-2.1,1.1-4.2,2.3-6.6,4.6s-6.7,5.9-6.7,15.1c0,5.7,.5,4.4,.7,5.1s.3,1.3,.5,1.9c.4,1.3,.8,2.7,1.3,4.2,1,3.1,2.2,6.8,3.3,10,1.2,3.3,2.9,7.2,4.6,11.1,1.5,3.5,3.6,8.1,4.3,9.8l.2,.6,.1,3.4c.6,14.5,3.9,27.6,10.6,38.9,3.7,6.2,9.1,12.1,14.9,16.1,4.9,3.3,11.1,6.3,16.2,7.4l11.9,1.2,10.5-1.5c1-.2,1.8-.2,2.8-.4,8.8-1.4,14.8-3,23.1-6.1,19.6-7.3,39.1-17.2,58.5-29.6,5.5-3.5,14.2-9.3,18.3-12.4-1.1,.8,4.5-3.1,8.9-6.1,4.8-3.2,11.7-8.2,16.2-11.5,4.1-3,9.6-7.1,12.1-8.9,6.5-4.8,10.2-7.7,19.6-15.8,4.1-3.6,10.1-8.3,11.2-9.2,8.6-6.4,16.4-14.1,22.3-22.6,3.9-5.7,6.3-10,8.3-14.9,4.3-10.3,5.4-21.7,3.4-32.7-.3-1.4-.5-2.8-.8-4s.6,.1-1.3-4.8c1.5,3.8,.5,1.5,.3,.8s-.4-1.7-.6-2.7c-.5-2.5-1.2-6-1.7-8.3h0c-.3-1.3-.2-.1-.3-3.1-.1-2.7-.1-8.9-.1-18.3,1.9-.8,3.7-1.7,5.9-2.6,5.7-2.5,11.7-5.5,17.2-9,24.8-15.8,44.8-38.7,60.2-67.9,13.4-25.5,21.4-53.7,23.8-83.6h0c.7-8.9,.8-22.8,0-31.6-1.2-13.2-3.6-26.3-7.1-37.6-6.6-21-13-34.7-23.2-48.5-19.2-25.9-48.1-47.9-81.1-62.5C317.29,11.15,282.79,2.95,245.39,.45c-9.2-.6-26.7-.6-36.1,0h0Z"/>
      <path id="path968" class="cls-5" d="M135.19,561.25c-3.5-.8-5.5-1.7-9.6-4.6-4.1-2.8-6.6-5.5-9.4-10.2-5-8.3-7.4-17.6-7.9-30.1l-.3-6.8-1.6-3.7c-.9-2-2.9-6.6-4.4-10.2-1.6-3.6-3.4-8-4.1-9.8-2-5.7-4.7-14.2-4.7-14.9,0-1.9,5.3-4.6,7.4-3.7,1.4,.6,1.9,1.6,1.5,3-.7,2.3-.2,8.4,.9,11.2,.6,1.5,2.6,4.6,3.1,4.6s.4-2.7-.1-4.8c-.8-3.5-1.4-9.2-1.1-10.4,.6-2,4.2-3.3,6.4-2.4,1.1,.5,1.1,.8,.3,2.7-1,2.1-1,10.7,0,13.1,.7,1.7,1.6,2.5,2,1.8,.1-.2,.3-2.6,.4-5.4,.3-8.9,1.4-11.2,5.6-11.2,1.9,0,3.6,1.2,4.4,3.3,.5,1.2,.5,1.8,.2,3.6-.5,2.8-.3,5.7,.8,8.3,1.6,4,2.4,2.2,2.5-5.6,.1-4.3,.6-6.3,1.8-7.3,1-.8,3.5-1,4.8-.3,2.1,1,2.2,1.4,2.1,5.9-.1,2.3,.1,4.9,.3,6,.5,2.1,1.8,5,2.3,5s.7-2.5,.8-8.4l.1-5.3,1.3-1.1c2.2-1.7,4.1-2.6,6.7-2.8l2.4-.2,.8,1.4c.6,1.1,.9,2.3,1,5.1,.2,4.2,1,7.1,2.2,8.1,1.4,1.2,1.6,.2,1.3-7.4l-.2-7,1.1-1c.6-.5,1.8-1.2,2.7-1.4,1.4-.4,1.8-.3,3.1,.3,1.4,.7,1.5,.9,1.7,2.7,.3,2.6,1.6,6.4,2.9,8.1,1.9,2.6,2,1.8,1-6.5-.7-5.6-.7-5.1,.6-6.6,1.9-2,7.1-3.7,8.8-2.9,.5,.3,1.1,1.5,1.8,3.6,2.5,7.8,3.1,9.5,3.6,9.6,.7,.2,1.3-1.2,1.5-3.7,.2-1.9,0-2.8-.8-5.2-1.2-3.5-1.2-4.1-.1-6,.8-1.3,1.2-1.6,2.5-1.8,.9-.1,3.4-1,5.7-2.1,2.3-1,4.9-2,5.9-2.1,1.7-.2,1.8-.2,2.6,1,.4,.7,1.4,2.9,2.1,4.9,2.4,6.7,3,7.1,3.5,2.8,.4-3.2-.3-6.4-2.1-9.1-1.4-2.1-1.4-2.4-.1-3.6,2-1.8,4.5-2.6,8.5-2.6,3.5,0,4-.1,3.1-.9-.3-.3-.3-.7,.2-1.3,.8-1.1,3.2-3.1,4.3-3.3,.4-.1,1.1-.3,1.6-.4,.7-.2,1.1,.2,2.7,2.5,1.1,1.5,2.3,3.9,2.9,5.6,.5,1.6,1.2,3,1.4,3.1,1,.3,1.2-4.4,.3-7.1-.5-1.6-1.1-2.6-3.9-6.4-.6-.8-.6-.9,.1-1.4,1.5-1.1,3.5-1.9,5.9-2.3s2.6-.5,5-2.9,3.3-2.9,6.6-3.7c1.6-.4,1.9-.3,3.3,.5,.8,.5,2.5,1.7,3.7,2.7s2.3,1.9,2.5,1.9c.7,0,9.7-5.9,10.1-6.7,.3-.5,2-2.4,4-4.3,3.8-3.7,5.2-5.7,6.2-8.3,1.5-4.2,1.7-20.1,.5-27.9-1.1-6.4-2.2-18.6-2.1-21.1,.1-1.8,.5-3.1,1.3-4.6,1.9-3.5,4.1-4.5,10.3-4.5h3.8l4.4,2.2c5.9,3,7.9,3.3,12.2,2,4-1.2,6.7-3.1,9.8-6.8,2.9-3.5,6.8-10.1,8.3-13.8,2.2-5.7,5-8.7,7.9-8.7,3.3,0,4.7,1.7,6.1,7.3,.8,3.1,.8,4,.9,26.5,.1,22.1,.1,23.4,.9,26.9,.4,2,1.2,5.6,1.7,7.9s1,4.6,1.2,5.1,.7,2.9,1.1,5.4c1.4,7.6,.6,15.2-2.3,22.2-1.7,4.1-2.9,6.1-6.5,11.5-3.9,5.8-11.3,13.2-18,18.1-2.3,1.7-7.8,6.2-12.3,10-9.4,8-12.2,10.3-18.5,15-2.5,1.9-8,5.9-12.1,8.9s-11.1,8-15.6,11c-4.4,3-8.7,5.9-9.4,6.5-2.8,2.1-12.3,8.5-17.3,11.7-18.4,11.8-36.7,21.1-54.9,27.8-7.8,2.9-11.2,3.8-19.6,5.1-8.5,1.5-14.9,1.9-18.3,1.1h0Zm195.4-168.3c0-.1-.1-.2-.2-.2s-.2,.1-.2,.2,.1,.2,.2,.2c.1,0,.2-.1,.2-.2Zm-203.9,44.1c-1.5-.4-3-.8-3.1-1-.5-.6-1.2-6.1-1.5-12.7-.3-6.2-.8-9-1.5-8.3-.4,.4-1.8,6.1-2.3,9.9-.3,1.7-.3,4.1-.2,5.9l.3,3-1.7,.5c-1,.3-3.2,.5-5.7,.5-3.8,0-4.2-.1-6.4-1.1-2.1-1.1-2.3-1.2-2.8-3-.9-3.3-1.2-7.3-1.3-13.7,0-3.5-.2-6.4-.4-6.4-.5,0-1.4,2.3-2.1,5.3-.5,2.4-.8,9.1-.5,12.8,.1,1.2,0,1.3-1.5,1.6-2.4,.5-5.5-.3-7.4-1.8-1.4-1.2-1.6-1.5-2-4-.8-4.8-.8-5.7-.9-10.6,0-2.7-.2-4.8-.3-4.8-.6,0-1.9,3.6-2.4,6.3-.3,1.6-.4,4.4-.2,6.9l.2,4.1-1,.2c-2,.5-4.4-.2-6.2-1.8-2.9-2.5-3.2-3.8-3.5-11.8-.6-16.6,.8-31.4,3.8-41.6,.6-2.1,1.4-5.1,1.8-6.6,.9-3.8,1.2-11.8,.6-15-.4-2.4-2.5-7.7-3.1-8.1-.2-.1-.3,2.4-.3,5.4,0,6.3-.5,8.5-3,12.5-1.9,3-2.5,2.9-10-.7-3.3-1.6-8-4.2-10.4-5.6-2.4-1.5-5.7-3.5-7.2-4.4-3.2-1.9-8.4-7-10.9-10.6-1.8-2.5-4.3-8.5-5.4-12.6-.3-1.2-.9-4.5-1.4-7.3-.8-4.9-.8-5.9-.5-19.2,.4-17,.3-21.8-.4-29.2-.7-6.8-2.8-19.9-4.4-27.8-2.7-13.5-3.2-17.2-2.7-23.1,.2-2.4,.4-9.8,.5-16.4,.1-13.4,.8-20,3.1-33.2,3.8-21.2,12.4-44.9,22.7-62.2,13.7-23.1,34.5-44,57.8-58.1,6-3.6,16.9-9.1,22.4-11.3,6.3-2.5,22.2-7.9,28.1-9.6,17.9-5.1,36.2-8.1,57-9.5,7.2-.5,26.7-.5,33.9,0,35.5,2.4,67.6,10,97.5,23.3,30.2,13.4,56.9,33.9,73.6,56.5,9.1,12.3,14.1,22.8,20.4,42.9,3,9.5,5.3,21.7,6.3,33.6,.5,5.7,.5,22.3,0,28.5-2.2,27.5-9.5,53.2-21.7,76.4-14.1,26.8-31.9,47-53.6,60.8-8.9,5.6-21.4,11-25.6,11-2.2,0-2.6-.5-2.1-2.9,.2-1.1,.4-4.1,.4-6.7,0-5.6-.6-7.7-3.1-10.5-2.9-3.1-6.6-4.2-9.6-2.8-1,.5-4.3,3.2-8.2,6.9-6.3,5.9-10.9,9.4-14.3,10.7-7,2.8-22.9,5.1-41.9,6-7.5,.4-15.7,1-16.7,1.3-.3,.1-2.4,.3-4.6,.6-4.5,.5-12.1,2.5-15.4,4.1-2.6,1.2-5.4,3.2-5.4,3.7,0,.7,1.8,.4,4.3-.7,2.6-1.1,7.5-2.5,7.8-2.2,.1,.1-.5,1.6-1.3,3.3-2.1,4.3-2.5,6.4-2.2,11.5,.2,3.3,.5,5,1.4,8.1,2.6,8.3,1,15.2-4.1,17.5-1.4,.6-1.5,.8-2.6,3.9-1.2,3.2-4.9,6.3-8.1,6.7-1,.1-1.1,0-1.8-1.9-.4-1.1-1.3-3.2-2.1-4.6-1.4-2.6-4.2-5.7-4.7-5.2-.2,.1,.7,3,1.9,6.4s2.2,6.6,2.2,7.1c0,1.3-1.9,3.7-4,5-1,.6-3,1.4-4.5,1.8-2.4,.6-3.1,.9-5.2,2.8-2.8,2.5-4.4,3.2-6.7,3.2h-1.7l-.9-3.2c-.9-3.3-4.1-10.1-4.7-10.1s-.4,1,1.2,7c1.9,7.2,1.9,7.7,.1,9.7-2.9,3.1-9.6,4.8-14,3.6l-1.4-.4-.1-2.9c-.1-3.3-1.5-9.1-3-12.2-1.1-2.4-2.5-4.4-3-4.4s0,4.2,1.1,9.6c.5,2.5,1.1,5.7,1.2,7l.3,2.4-2,1.7c-4.6,4-9.7,5-16,3.4l-2-.5-.2-2.9c-.5-5.7-3.5-16-4.7-16-1,0-1,4.4-.1,10.2,.5,3,.9,6.2,.9,7,0,1.4-.1,1.5-1.9,2.4-2.8,1.5-8.8,1.7-13,.7h0Zm3.1-84.6c.5-.5,1.5-1.9,2.2-3.2,1.2-2.4,1.3-2.5,1.3-7.6,0-4.7-.1-5.6-1.2-9.6-2.7-9.9-10.3-23.8-17.7-32.3-2.9-3.3-4-4.2-6.5-5.5-2.2-1.1-3.4-1-5.1,.3-1.7,1.3-1.7,1.4-2.3,6.6-.5,4.9-1.2,8.6-2.9,16.1-2.1,9.6-3.4,19.4-3.1,24.6,.3,4.7,.7,6.3,1.9,7.6,1.5,1.6,4.2,.6,5.6-2.1,2-3.8,2.6-9.2,3-25.3,.2-10.6,.3-12,.8-11.6,.9,.7,5.7,10.3,6.6,13.3,2.4,7.5,6.4,18.6,7.8,21.4,1.2,2.4,2.2,3.7,4.2,5.6,2.8,2.8,3.8,3.1,5.4,1.7h0Zm81.6-44.3c6.5-.8,13.2-2.6,18.1-5,2.5-1.2,9.7-7,12.1-9.6,4.5-5,6.4-8.4,9-16.2,2.3-6.9,2.9-10.6,2.9-18.6,0-10.1-1.3-16-5.5-24-5.6-10.7-12.6-18.8-21.1-24.3-5.8-3.8-15.2-8.1-21.6-9.9-4.6-1.3-13-2.8-17.2-3-9.5-.6-19.6,2.3-26.1,7.5-3.3,2.6-7.3,8.9-9.3,14.7-1.3,3.7-1.5,4.5-1.6,8.7-.2,7.6,.6,20,1.9,28.4,.6,4.2,1.4,9.6,1.8,12,.7,5.4,1.3,7.8,3.1,13.2,1.7,5.2,3,7.5,5.8,11,4.6,5.7,10.4,9.4,19.9,12.6,8,2.7,11.6,3.3,19.1,3.1,2.9-.1,6.9-.4,8.7-.6h0Zm-140.4-12.5c9.2-3.4,14.1-7.6,18.2-15.3,4.9-9.4,7.9-31,6.1-43.5-1.5-10.3-5.3-19.9-10.5-26.5-2.4-3-9.3-9-12-10.3-2.4-1.2-7.1-2.4-10.5-2.7-2.5-.3-8,.7-11.6,2-1.2,.4-3.3,1.6-4.6,2.5-3.5,2.6-5.7,5.4-7.7,9.9l-1.7,3.9,.1,29.9c.1,21.8,.2,30.4,.6,31.9,.7,3,4.9,10.9,7,13.1,1.2,1.2,3,2.5,5.6,3.9,4.3,2.3,7.1,2.9,12.7,3,3.3,.1,3.7,0,8.3-1.8h0Zm-39.2-15.7c-.1-.1-.3,0-.3,.2,0,.3,.1,.4,.3,.2,.2-.1,.2-.3,0-.4h0Zm-.6-14.4c0-.1-.1-.2-.2-.2s-.2,.1-.2,.2,.1,.2,.2,.2,.2-.1,.2-.2Z"/>
    </g>
  </g>
  <g id="Cam">
    <path class="cls-2" d="M176.3,203.52h-8.61c-19,0-34.41,15.4-34.41,34.41v210.55c0,19.14,15.51,34.65,34.65,34.65h360.86c19.14,0,34.65-15.51,34.65-34.65V237.93c0-19-15.4-34.41-34.41-34.41h-61.11l-28.68-71.69h-181.77l-28.68,71.69h-52.5Z"/>
    <path class="cls-8" d="M176.51,203.52h-8.81c-19,0-34.41,15.4-34.41,34.41v210.55c0,19.14,15.51,34.65,34.65,34.65h360.86c19.14,0,34.65-15.51,34.65-34.65V237.93c0-19-15.4-34.41-34.41-34.41h-61.11l-28.68-71.69h-181.77l-28.68,71.69h-52.3Zm372.6,244.95c0,11.22-9.09,20.31-20.31,20.31H167.94c-11.22,0-20.31-9.09-20.31-20.31V237.93c0-11.08,8.98-20.07,20.07-20.07h70.82l28.68-71.69h162.35l28.68,71.69h70.82c11.08,0,20.07,8.98,20.07,20.07v210.55Z"/>
    <path class="cls-6" d="M352.65,196.42c-74.53-2.42-135.68,58.73-133.26,133.26,2.2,67.62,57.08,122.5,124.7,124.7,74.53,2.42,135.68-58.73,133.26-133.26-2.2-67.62-57.08-122.5-124.7-124.7Z"/>
    <path class="cls-6" d="M352.65,196.42c-74.53-2.42-135.68,58.73-133.26,133.26,2.2,67.62,57.08,122.5,124.7,124.7,74.53,2.42,135.68-58.73,133.26-133.26-2.2-67.62-57.08-122.5-124.7-124.7Zm-.47,243.62c-66.25,2.16-120.61-52.2-118.45-118.45,1.96-60.1,50.74-108.88,110.84-110.84,66.25-2.16,120.61,52.2,118.45,118.45-1.96,60.1-50.74,108.88-110.84,110.84Z"/>
    <path class="cls-4" d="M352.9,231.54c-56.83-2.54-103.63,42.98-101.02,98.27,2.28,48.2,42.4,87.23,91.95,89.45,56.83,2.54,103.63-42.98,101.02-98.27-2.28-48.2-42.4-87.23-91.95-89.45Z"/>
    <path class="cls-8" d="M353.38,218.65c-62.88-2.89-114.66,48.89-111.77,111.77,2.52,54.82,46.92,99.22,101.74,101.74,62.88,2.89,114.66-48.89,111.77-111.77-2.52-54.82-46.92-99.22-101.74-101.74Zm.81,195.62c-53.68,3.43-98.12-41.01-94.69-94.69,2.84-44.37,38.68-80.21,83.05-83.05,53.68-3.43,98.12,41.01,94.69,94.69-2.84,44.37-38.68,80.21-83.05,83.05Z"/>
    <path class="cls-7" d="M348.36,263.06c34.64,0,62.73,28.08,62.73,62.73"/>
  </g>
  <path id="Sparkles" class="cls-3" d="M202.51,451.15c-.27-.7-1.73-8.87-3.32-18.15s-3.98-23.92-5.57-32.65c-3.32-19.28-16.19-94.71-19.91-116.67-.93-5.35-1.86-9.99-2.12-10.27-.27-.28-3.19-1.13-6.37-2.11-20.31-5.49-53.63-15.2-56.01-16.33-1.19-.56-1.59-1.27-1.59-2.25,0-.7-.13-1.69-.4-1.97-.66-.99,.27-1.83,4.25-3.66,5.04-2.39,29.33-12.24,44.47-18.3,6.64-2.53,12.34-4.93,12.74-5.35s.93-5.07,1.33-13.65c.4-7.18,1.19-21.67,1.73-32.23,.53-10.56,1.73-30.82,2.52-45.03,.8-14.21,1.99-36.17,2.79-48.98s1.46-26.88,1.73-31.52c.27-4.64,.53-8.87,.93-9.43,.53-1.13,2.79-1.27,3.58-.28,.27,.42,1.73,7.6,3.19,16.18,1.46,8.44,4.25,24.63,6.11,36.03,1.99,11.26,4.78,27.87,6.37,36.87s2.92,17.45,3.19,18.86,1.33,6.05,2.52,10.41c4.65,18.44,11.02,44.61,13.27,55.31,.4,1.97,.93,3.8,1.19,4.08,.27,.28,3.45,.99,7.04,1.83,3.58,.84,12.08,2.53,18.72,4.08,66.63,14.35,61.86,13.23,63.05,14.64,.53,.7,.53,.99-.13,1.41s-.66,.56-.13,.84c1.19,.42,.8,1.83-.8,2.67-3.05,1.55-35.31,11.54-68.36,20.83-8.36,2.39-15.13,4.36-15.26,4.5-.27,.28-1.06,8.87-1.99,19.98-.93,11.82-1.19,14.64-1.86,21.39-.8,8.3-1.06,10.84-1.59,16.89-1.06,10.98-5.04,47.99-6.11,57.28-.27,2.25-.8,6.19-1.06,8.73-.27,2.53-.66,6.19-.8,8.3-.4,10.27-2.12,40.11-2.39,44.05l-.4,4.5-1.73,.14c-1.86,.28-2.39,0-2.79-.99h0Zm72.08-14.35c0-.14-1.86-10.7-4.11-23.5s-4.78-26.88-5.57-31.52-1.46-8.44-1.59-8.44c0,0-3.98-1.13-8.63-2.39-12.88-3.52-15-4.22-15.13-5.21-.13-1.13,.13-1.27,12.61-6.19,5.44-2.11,9.96-3.94,9.96-4.08,.13-.14,1.19-16.75,2.79-47,.8-14.92,1.06-17.59,1.86-17.45,.53,.14,.93,1.13,1.19,2.39,.27,1.27,1.73,9.99,3.45,19.42,2.52,14.21,8.36,40.53,9.29,41.38,.13,.14,7.3,1.69,16.06,3.52,9.16,1.97,16.06,3.66,16.33,4.08,.27,.42,.13,.99-.4,1.41-.4,.42-7.17,2.39-15,4.64-7.83,2.25-14.47,4.22-15,4.5s-.93,1.83-1.19,4.64c-1.19,12.67-1.73,18.58-2.65,26.88-1.33,11.4-1.99,19.28-2.52,27.16-.27,4.64-.53,6.05-1.06,6.05-.4,0-.66-.14-.66-.28h0Zm.8-231.22c-.13-.28-.93-2.96-1.59-6.05-.8-3.1-3.05-12.53-5.18-20.97s-4.25-17.45-4.78-19.98l-.93-4.5-9.96-2.39c-12.88-3.1-13.94-3.38-14.34-4.36-.27-.84,.13-.99,11.15-3.94,3.19-.84,7.3-1.97,9.03-2.53l3.32-.99,.93-9.99c.53-5.49,1.33-13.65,1.86-17.87,.53-4.36,1.19-10.98,1.59-14.78,.66-6.47,1.33-8.87,2.26-7.46,.13,.28,.8,3.52,1.46,7.04,.53,3.52,1.33,7.46,1.59,8.58,.27,1.27,.93,4.64,1.46,7.46,1.19,7.04,6.5,25.33,7.57,25.89,.93,.56,13.8,2.11,21.64,2.53,9.03,.56,10.62,1.13,7.96,2.53-1.46,.84-19.78,6.9-24.42,8.16-2.12,.56-3.98,1.13-4.25,1.41-.27,.14-1.33,8.73-2.39,18.86-1.86,16.47-2.26,23.22-2.39,31.66-.27,1.97-.8,2.81-1.59,1.69h0Z"/>
</svg>